<svg fill="#000000" xmlns="http://www.w3.org/2000/svg"  viewBox="0 0 64 64" width="64px" height="64px"><path d="M 22.181641 10 C 14.914132 10 9 15.914132 9 23.181641 L 9 42.818359 C 9 50.085868 14.914132 56 22.181641 56 L 41.818359 56 C 49.085868 56 55 50.085868 55 42.818359 L 55 23.181641 A 1.0001 1.0001 0 1 0 53 23.181641 L 53 42.818359 C 53 49.004851 48.004851 54 41.818359 54 L 22.181641 54 C 15.995149 54 11 49.004851 11 42.818359 L 11 23.181641 C 11 16.995149 15.995149 12 22.181641 12 L 41.818359 12 C 44.819356 12 47.369538 13.693564 48.300781 15.650391 C 48.766403 16.628804 48.858364 17.640204 48.480469 18.660156 C 48.265769 19.239637 47.825083 19.829743 47.230469 20.414062 C 46.653542 19.215408 45.925361 18.212374 44.990234 17.669922 C 43.530685 16.823261 41.725078 16.847144 40.535156 17.945312 A 1.0001 1.0001 0 0 0 40.482422 17.998047 C 39.7705 18.759482 39.463769 19.739456 39.552734 20.646484 C 39.641704 21.553513 40.085575 22.379182 40.746094 23.005859 C 41.984052 24.180392 44.062945 24.5836 46.115234 23.611328 C 47.81729 35.988914 39.73481 43 32 43 C 28.231591 43 26.109938 41.442903 24.777344 39.529297 C 23.44475 37.61569 23 35.254217 23 34 C 23 32.613421 23.469416 30.286994 24.8125 28.414062 C 26.155584 26.541131 28.289531 25.034877 32.009766 25 C 36.080977 24.96164 38.350701 27.511907 38.962891 30.404297 C 39.57508 33.296687 38.476408 36.364206 35.314453 37.529297 A 1.0001243 1.0001243 0 1 0 36.005859 39.40625 C 40.119905 37.890341 41.701482 33.682845 40.919922 29.990234 C 40.138361 26.297624 36.940023 22.953361 31.990234 23 C 27.710469 23.040123 24.844416 24.937478 23.1875 27.248047 C 21.530584 29.558616 21 32.195579 21 34 C 21 35.681783 21.49661 38.319481 23.134766 40.671875 C 24.772922 43.024269 27.651409 45 32 45 C 41.125355 45 50.321158 36.395582 48.039062 22.603516 C 48.022852 22.505406 47.966136 22.449259 47.947266 22.353516 C 49.062058 21.440598 49.949256 20.449898 50.355469 19.353516 C 50.927948 17.808375 50.768847 16.184977 50.105469 14.791016 C 48.778716 12.003092 45.551363 10 41.818359 10 L 22.181641 10 z M 42.791016 19.056641 C 43.147767 19.044171 43.552478 19.148721 43.986328 19.400391 C 44.614397 19.764723 45.180555 20.58936 45.607422 21.664062 C 45.578012 21.681213 45.567029 21.699717 45.537109 21.716797 A 1.0001 1.0001 0 0 0 45.535156 21.716797 C 44.01229 22.586536 42.817259 22.213331 42.123047 21.554688 C 41.775941 21.225365 41.579159 20.820143 41.542969 20.451172 C 41.508009 20.094788 41.607048 19.761877 41.929688 19.400391 C 42.160465 19.20019 42.449746 19.068568 42.791016 19.056641 z"/></svg>