<svg fill="#000000" xmlns="http://www.w3.org/2000/svg"  viewBox="0 0 64 64" width="64px" height="64px"><path d="M 30.783203 13.107422 C 24.444512 13.106322 18.113057 13.282552 11.787109 13.640625 A 1.0001 1.0001 0 0 0 11.787109 13.642578 C 8.0704 13.853325 4.9622621 16.683059 4.5566406 20.40625 C 3.7069273 28.208712 3.6788423 34.266826 4.5605469 42.498047 C 4.8117882 44.844371 5.9997112 46.926327 8.0078125 48.216797 C 10.015914 49.507267 12.773376 50.004949 16.134766 49.501953 C 22.857545 48.495962 32.111784 43.550377 43.699219 32.214844 A 1.0001 1.0001 0 0 0 43.419922 30.591797 L 23.419922 21.333984 A 1.0001 1.0001 0 0 0 22 22.242188 L 22 39.8125 A 1.0001 1.0001 0 0 0 23.535156 40.65625 L 31.556641 35.568359 A 1.0005006 1.0005006 0 0 0 30.484375 33.878906 L 24 37.992188 L 24 23.808594 L 41.195312 31.767578 C 30.330285 42.126478 21.660486 46.654394 15.839844 47.525391 C 12.826733 47.97627 10.592742 47.500967 9.0898438 46.535156 C 7.5869449 45.569345 6.7445868 44.113332 6.5488281 42.285156 C 5.678529 34.160377 5.7066352 28.320585 6.5449219 20.623047 C 6.8433004 17.884238 9.1271 15.795925 11.900391 15.638672 C 24.476495 14.926817 37.077096 14.931668 49.705078 15.642578 C 52.507634 15.800601 54.764712 17.93439 55.078125 20.722656 C 55.960336 28.570639 56.398459 33.132165 55.287109 41.03125 C 54.782614 44.615363 51.680745 46.719273 48.810547 47.273438 C 44.446423 48.11562 34.664772 48.400616 28.185547 47.949219 A 1.000452 1.000452 0 1 0 28.046875 49.945312 C 34.71565 50.409915 44.381577 50.166099 49.189453 49.238281 C 52.731255 48.554446 56.622074 45.896434 57.267578 41.310547 C 58.404229 33.231632 57.950195 28.360064 57.066406 20.498047 C 56.645819 16.756319 53.577804 13.858462 49.818359 13.646484 C 43.46735 13.288942 37.121894 13.10855 30.783203 13.107422 z"/></svg>